<svg width="42" height="42" viewBox="0 0 42 42" fill="none" xmlns="http://www.w3.org/2000/svg">
<rect x="0.5" y="0.5" width="41" height="41" stroke="#E7E9EC"/>
<path fill-rule="evenodd" clip-rule="evenodd" d="M20.7441 25.7559C20.4186 25.4305 20.4186 24.9028 20.7441 24.5774L24.3215 21L20.7441 17.4226C20.4186 17.0972 20.4186 16.5695 20.7441 16.2441C21.0695 15.9186 21.5972 15.9186 21.9226 16.2441L26.0893 20.4107C26.4147 20.7362 26.4147 21.2638 26.0893 21.5893L21.9226 25.7559C21.5972 26.0814 21.0695 26.0814 20.7441 25.7559Z" fill="#3586EB"/>
<path fill-rule="evenodd" clip-rule="evenodd" d="M14.6666 21C14.6666 20.5398 15.0397 20.1667 15.5 20.1667L25.5 20.1667C25.9602 20.1667 26.3333 20.5398 26.3333 21C26.3333 21.4603 25.9602 21.8334 25.5 21.8334L15.5 21.8334C15.0397 21.8334 14.6666 21.4603 14.6666 21Z" fill="#3586EB"/>
</svg>
