<svg width="42" height="42" viewBox="0 0 42 42" fill="none" xmlns="http://www.w3.org/2000/svg">
<rect x="41.5" y="41.5" width="41" height="41" transform="rotate(-180 41.5 41.5)" stroke="#E7E9EC"/>
<path fill-rule="evenodd" clip-rule="evenodd" d="M21.2559 16.2441C21.5814 16.5695 21.5814 17.0972 21.2559 17.4226L17.6785 21L21.2559 24.5774C21.5814 24.9028 21.5814 25.4305 21.2559 25.7559C20.9305 26.0814 20.4028 26.0814 20.0774 25.7559L15.9107 21.5893C15.5853 21.2638 15.5853 20.7362 15.9107 20.4107L20.0774 16.2441C20.4028 15.9186 20.9305 15.9186 21.2559 16.2441Z" fill="#3586EB"/>
<path fill-rule="evenodd" clip-rule="evenodd" d="M27.3334 21C27.3334 21.4602 26.9603 21.8333 26.5 21.8333L16.5 21.8333C16.0398 21.8333 15.6667 21.4602 15.6667 21C15.6667 20.5397 16.0398 20.1666 16.5 20.1666L26.5 20.1666C26.9603 20.1666 27.3334 20.5397 27.3334 21Z" fill="#3586EB"/>
</svg>
