<svg width="13" height="10" viewBox="0 0 13 10" fill="none" xmlns="http://www.w3.org/2000/svg">
<path fill-rule="evenodd" clip-rule="evenodd" d="M6.74408 9.75592C6.41864 9.43049 6.41864 8.90285 6.74408 8.57741L10.3215 5L6.74408 1.42259C6.41864 1.09715 6.41864 0.569514 6.74408 0.244078C7.06951 -0.0813589 7.59715 -0.081359 7.92259 0.244078L12.0893 4.41074C12.4147 4.73618 12.4147 5.26382 12.0893 5.58926L7.92259 9.75592C7.59715 10.0814 7.06951 10.0814 6.74408 9.75592Z" fill="#3586EB"/>
<path fill-rule="evenodd" clip-rule="evenodd" d="M0.666687 4.99998C0.666687 4.53974 1.03978 4.16665 1.50002 4.16665L11.5 4.16665C11.9603 4.16665 12.3334 4.53974 12.3334 4.99998C12.3334 5.46022 11.9603 5.83331 11.5 5.83331L1.50002 5.83331C1.03978 5.83331 0.666687 5.46022 0.666687 4.99998Z" fill="#3586EB"/>
</svg>
