<svg width="12" height="12" viewBox="0 0 12 12" fill="none" xmlns="http://www.w3.org/2000/svg">
<path d="M8.59029 1.4178C8.72275 1.28534 8.88 1.18027 9.05306 1.10858C9.22613 1.0369 9.41162 1 9.59894 1C9.78626 1 9.97175 1.0369 10.1448 1.10858C10.3179 1.18027 10.4751 1.28534 10.6076 1.4178C10.7401 1.55026 10.8451 1.70751 10.9168 1.88057C10.9885 2.05364 11.0254 2.23913 11.0254 2.42645C11.0254 2.61377 10.9885 2.79926 10.9168 2.97233C10.8451 3.14539 10.7401 3.30265 10.6076 3.4351L3.79919 10.2435L1.02539 11L1.78188 8.22621L8.59029 1.4178Z" stroke="#3586EB" stroke-linecap="round" stroke-linejoin="round"/>
</svg>
