<svg width="19" height="19" viewBox="0 0 19 19" fill="none" xmlns="http://www.w3.org/2000/svg">
<g clip-path="url(#clip0)">
<path d="M9.687 19C9.62408 19 9.56117 19 9.49783 18.9997C8.00852 19.0033 6.63243 18.9655 5.29417 18.884C4.06725 18.8094 2.9473 18.3854 2.05522 17.6579C1.19446 16.9561 0.606651 16.007 0.308182 14.8375C0.0484162 13.8193 0.0346451 12.8198 0.0214539 11.8531C0.0118866 11.1594 0.00202942 10.3375 0 9.5017C0.00202942 8.66239 0.0118866 7.84047 0.0214539 7.14685C0.0346451 6.18026 0.0484162 5.18077 0.308182 4.16244C0.606651 2.99291 1.19446 2.04386 2.05522 1.34197C2.9473 0.614572 4.06725 0.190567 5.29432 0.115914C6.63258 0.0345918 8.00896 -0.00338736 9.50145 0.000236614C10.9912 -0.00295248 12.3668 0.0345918 13.7051 0.115914C14.932 0.190567 16.052 0.614572 16.9441 1.34197C17.805 2.04386 18.3926 2.99291 18.6911 4.16244C18.9509 5.18063 18.9646 6.18026 18.9778 7.14685C18.9874 7.84047 18.9974 8.66239 18.9993 9.49822V9.5017C18.9974 10.3375 18.9874 11.1594 18.9778 11.8531C18.9646 12.8197 18.951 13.8192 18.6911 14.8375C18.3926 16.007 17.805 16.9561 16.9441 17.6579C16.052 18.3854 14.932 18.8094 13.7051 18.884C12.4235 18.962 11.107 19 9.687 19ZM9.49783 17.5153C10.9629 17.5188 12.3081 17.4818 13.6149 17.4024C14.5427 17.346 15.347 17.0449 16.006 16.5076C16.6151 16.0108 17.0347 15.3254 17.2528 14.4705C17.4691 13.6229 17.4816 12.7128 17.4936 11.8328C17.503 11.1438 17.5129 10.3277 17.5149 9.49996C17.5129 8.6721 17.503 7.85613 17.4936 7.16714C17.4816 6.2871 17.4691 5.37705 17.2528 4.52933C17.0347 3.67436 16.6151 2.989 16.006 2.49222C15.347 1.955 14.5427 1.65393 13.6149 1.59754C12.3081 1.51795 10.9629 1.48128 9.5013 1.48447C8.0365 1.48099 6.69114 1.51795 5.38434 1.59754C4.4566 1.65393 3.65223 1.955 2.99325 2.49222C2.38413 2.989 1.96462 3.67436 1.74646 4.52933C1.53018 5.37705 1.51772 6.28695 1.50568 7.16714C1.49626 7.85671 1.4864 8.67326 1.48438 9.5017C1.4864 10.3265 1.49626 11.1432 1.50568 11.8328C1.51772 12.7128 1.53018 13.6229 1.74646 14.4705C1.96462 15.3254 2.38413 16.0108 2.99325 16.5076C3.65223 17.0448 4.4566 17.3459 5.38434 17.4022C6.69114 17.4818 8.03679 17.5189 9.49783 17.5153ZM9.46246 14.1386C6.90481 14.1386 4.82378 12.0578 4.82378 9.49996C4.82378 6.94216 6.90481 4.86128 9.46246 4.86128C12.0202 4.86128 14.1011 6.94216 14.1011 9.49996C14.1011 12.0578 12.0202 14.1386 9.46246 14.1386ZM9.46246 6.34566C7.72324 6.34566 6.30816 7.76075 6.30816 9.49996C6.30816 11.2392 7.72324 12.6543 9.46246 12.6543C11.2018 12.6543 12.6168 11.2392 12.6168 9.49996C12.6168 7.76075 11.2018 6.34566 9.46246 6.34566ZM14.6207 3.3769C14.0059 3.3769 13.5074 3.87527 13.5074 4.49019C13.5074 5.1051 14.0059 5.60347 14.6207 5.60347C15.2356 5.60347 15.7339 5.1051 15.7339 4.49019C15.7339 3.87527 15.2356 3.3769 14.6207 3.3769Z" fill="white"/>
</g>
<defs>
<clipPath id="clip0">
<rect width="19" height="19" fill="white"/>
</clipPath>
</defs>
</svg>
