<svg width="13" height="18" viewBox="0 0 13 18" fill="none" xmlns="http://www.w3.org/2000/svg">
<path d="M6.32902 0C5.20199 -2.38136e-06 4.0954 0.300942 3.12361 0.871736C2.15182 1.44253 1.35007 2.26247 0.801214 3.24681C0.25236 4.23116 -0.0236867 5.34422 0.0015927 6.47096C0.0268721 7.5977 0.352564 8.69726 0.945013 9.656L5.96802 17.751C6.01533 17.8272 6.08131 17.8901 6.1597 17.9336C6.2381 17.9772 6.32632 18 6.41601 18C6.50637 17.9993 6.59503 17.9754 6.67348 17.9306C6.75194 17.8857 6.81755 17.8215 6.86401 17.744L11.764 9.571C12.337 8.61035 12.6451 7.51502 12.6571 6.39654C12.669 5.27807 12.3843 4.1764 11.832 3.20375C11.2796 2.23109 10.4794 1.42219 9.51274 0.859416C8.54609 0.296643 7.44756 0.000104893 6.32902 0V0ZM10.859 9.029L6.40901 16.46L1.84202 9.1C1.34928 8.30368 1.07732 7.39059 1.05406 6.45445C1.0308 5.5183 1.25706 4.59283 1.70963 3.77302C2.1622 2.95321 2.82477 2.26859 3.62934 1.78945C4.4339 1.3103 5.35148 1.05388 6.28789 1.04651C7.22429 1.03914 8.14579 1.28108 8.9578 1.7475C9.76981 2.21392 10.4431 2.88801 10.9085 3.70059C11.3739 4.51318 11.6147 5.43497 11.6062 6.37137C11.5977 7.30776 11.3401 8.22502 10.86 9.029H10.859Z" fill="#2D2D2D"/>
<path d="M6.32807 3.16394C5.70229 3.16394 5.09056 3.34951 4.57024 3.69717C4.04992 4.04484 3.64439 4.53898 3.40491 5.11713C3.16544 5.69527 3.10277 6.33145 3.22486 6.94521C3.34694 7.55896 3.64829 8.12273 4.09078 8.56522C4.53327 9.00772 5.09705 9.30906 5.7108 9.43114C6.32456 9.55323 6.96074 9.49057 7.53888 9.2511C8.11703 9.01162 8.61117 8.60608 8.95884 8.08576C9.3065 7.56544 9.49207 6.95372 9.49207 6.32794C9.49101 5.48912 9.15732 4.68496 8.56418 4.09183C7.97105 3.49869 7.16689 3.165 6.32807 3.16394ZM6.32807 8.44394C5.90944 8.44453 5.50003 8.32094 5.15166 8.08879C4.80329 7.85664 4.53162 7.52637 4.37101 7.13978C4.21039 6.75318 4.16806 6.32763 4.24936 5.91697C4.33067 5.50631 4.53196 5.12899 4.82776 4.83276C5.12357 4.53654 5.50061 4.33471 5.91115 4.25282C6.3217 4.17093 6.74731 4.21266 7.13413 4.37273C7.52095 4.53279 7.85161 4.80401 8.08425 5.15205C8.31689 5.50009 8.44106 5.90931 8.44106 6.32794C8.44053 6.88846 8.21785 7.42591 7.82178 7.82253C7.42572 8.21916 6.88858 8.44262 6.32807 8.44394Z" fill="#2D2D2D"/>
</svg>
