<svg width="18" height="19" viewBox="0 0 18 19" fill="none" xmlns="http://www.w3.org/2000/svg">
<path d="M15.0764 10.729C14.9043 10.5368 14.6944 10.3822 14.4599 10.2746C14.2254 10.1671 13.9713 10.109 13.7134 10.104C13.4537 10.1101 13.1978 10.1682 12.961 10.2748C12.7241 10.3815 12.511 10.5346 12.3344 10.725L11.0594 11.993C10.9594 11.937 10.8494 11.884 10.7494 11.832C10.6044 11.759 10.4674 11.691 10.3494 11.618C9.08619 10.7969 7.96546 9.7751 7.03137 8.593C6.59983 8.06865 6.23535 7.49254 5.94637 6.878C6.27737 6.578 6.58337 6.261 6.88137 5.959C6.99437 5.846 7.10737 5.729 7.22037 5.616C7.41973 5.44235 7.57956 5.22798 7.68908 4.98734C7.7986 4.7467 7.85527 4.48539 7.85527 4.221C7.85527 3.95661 7.7986 3.6953 7.68908 3.45466C7.57956 3.21402 7.41973 2.99965 7.22037 2.826L6.12037 1.726C5.99537 1.601 5.86637 1.472 5.74537 1.343C5.50337 1.093 5.24537 0.835 4.98737 0.593C4.81278 0.409468 4.60342 0.262516 4.37147 0.160707C4.13953 0.0588985 3.88964 0.00426764 3.63637 0C3.11796 0.00951604 2.62409 0.222509 2.26137 0.593L2.25337 0.601L0.882367 1.983C0.373892 2.48186 0.0630934 3.14786 0.00736752 3.858C-0.0393704 4.88093 0.13669 5.90181 0.523367 6.85C1.24557 8.73032 2.28947 10.4706 3.60837 11.993C5.33732 14.0746 7.4915 15.7624 9.92637 16.943C11.0323 17.5142 12.2366 17.8705 13.4754 17.993C13.5604 17.993 13.6484 18.001 13.7294 18.001C14.1663 18.0115 14.6005 17.9276 15.002 17.7551C15.4036 17.5825 15.7633 17.3253 16.0564 17.001C16.0564 16.993 16.0684 16.989 16.0724 16.981C16.294 16.7248 16.5297 16.4811 16.7784 16.251C16.9514 16.086 17.1294 15.912 17.3024 15.731C17.6814 15.3625 17.9002 14.8596 17.9114 14.331C17.9061 14.0706 17.8484 13.8139 17.7417 13.5763C17.635 13.3386 17.4815 13.125 17.2904 12.948L15.0764 10.729ZM16.5204 14.975C16.3634 15.144 16.2014 15.298 16.0284 15.467C15.755 15.7218 15.4953 15.9908 15.2504 16.273C15.0599 16.4842 14.8255 16.6511 14.5636 16.7619C14.3016 16.8726 14.0186 16.9245 13.7344 16.914C13.6744 16.914 13.6094 16.914 13.5494 16.914C12.4508 16.8007 11.3837 16.4804 10.4044 15.97C8.10882 14.857 6.0775 13.2665 4.44637 11.305C3.20735 9.87318 2.22613 8.23726 1.54637 6.47C1.20787 5.67334 1.05337 4.81062 1.09437 3.946C1.1256 3.49118 1.32358 3.06388 1.65037 2.746L3.02537 1.371C3.18579 1.20103 3.40505 1.09873 3.63837 1.085C3.86409 1.09812 4.07562 1.19939 4.22737 1.367L4.23937 1.379C4.48537 1.609 4.71937 1.847 4.96537 2.101C5.09037 2.23 5.21937 2.359 5.34837 2.492L6.44637 3.593C6.54548 3.66432 6.62621 3.75819 6.68189 3.86687C6.73758 3.97554 6.76662 4.09589 6.76662 4.218C6.76662 4.34011 6.73758 4.46046 6.68189 4.56914C6.62621 4.67781 6.54548 4.77168 6.44637 4.843C6.32937 4.96 6.21637 5.077 6.09937 5.19C5.76037 5.537 5.43837 5.859 5.08737 6.174C5.07937 6.182 5.07137 6.186 5.06737 6.194C4.94314 6.30684 4.85644 6.455 4.8189 6.61857C4.78135 6.78214 4.79478 6.95328 4.85737 7.109L4.86937 7.145C5.2002 7.91116 5.63788 8.62659 6.16937 9.27C7.17612 10.5452 8.38597 11.6459 9.75037 12.528C9.91227 12.6266 10.0792 12.7167 10.2504 12.798C10.3954 12.871 10.5324 12.939 10.6504 13.012C10.6664 13.02 10.6824 13.032 10.6984 13.04C10.8218 13.1048 10.959 13.139 11.0984 13.14C11.214 13.1371 11.3278 13.1111 11.4331 13.0633C11.5384 13.0155 11.6331 12.9471 11.7114 12.862L13.0964 11.493C13.2532 11.3184 13.4713 11.2109 13.7054 11.193C13.8171 11.1998 13.9263 11.2294 14.0263 11.2799C14.1262 11.3305 14.2147 11.401 14.2864 11.487L14.2944 11.495L16.5164 13.717C16.6118 13.7916 16.689 13.887 16.7422 13.9958C16.7955 14.1046 16.8233 14.2241 16.8235 14.3453C16.8238 14.4664 16.7966 14.586 16.7439 14.6951C16.6912 14.8042 16.6144 14.8999 16.5194 14.975H16.5204Z" fill="#2D2D2D"/>
</svg>
